<svg width="134" height="40" viewBox="0 0 134 40" fill="none" xmlns="http://www.w3.org/2000/svg">
<path d="M26.6667 21.6667C26.6667 26.2691 22.9357 30.0001 18.3333 30.0001C13.731 30.0001 10 26.2691 10 21.6667H3.33334C3.33334 29.951 10.0491 36.6667 18.3333 36.6667C26.6176 36.6667 33.3333 29.951 33.3333 21.6667C33.3333 13.3825 26.6176 6.66675 18.3333 6.66675V13.3334C22.9357 13.3334 26.6667 17.0644 26.6667 21.6667Z" fill="#0C111D"/>
<path opacity="0.5" d="M8.33333 3.33325C8.33333 7.93563 4.60237 11.6666 0 11.6666V18.3333C8.28427 18.3333 15 11.6175 15 3.33325H8.33333Z" fill="#0C111D"/>
<path d="M43.3334 11.5249H54.8084V14.7424H47.2709V17.8924H54.5384V21.0874H47.2709V24.2824H54.9884V27.4999H43.3334V11.5249Z" fill="#0C111D"/>
<path d="M56.0443 19.3324C56.4943 16.6999 58.4743 15.3049 61.8043 15.3049C65.6293 15.3049 67.5193 17.0599 67.5193 20.5474V23.9449C67.5193 24.8224 67.8793 24.9574 68.2843 24.9574H68.6893V27.4999L68.1493 27.5449C67.5193 27.5674 64.7743 27.9949 64.3693 25.6999C63.7393 26.9824 62.3893 27.7699 60.1168 27.7699C57.6868 27.7699 55.8418 26.4649 55.8418 24.3499C55.8418 22.2124 57.4393 21.3124 60.3868 20.7274L63.5818 20.0749C63.5818 18.4324 63.0193 17.6674 61.7818 17.6674C60.7468 17.6674 60.1168 18.2749 59.9143 19.4899L56.0443 19.3324ZM59.8243 24.1924C59.8243 24.8899 60.3868 25.3849 61.4443 25.3849C62.7493 25.3849 63.6493 24.3949 63.6493 22.4374V22.3249L61.9618 22.6399C60.6793 22.8649 59.8243 23.1349 59.8243 24.1924Z" fill="#0C111D"/>
<path d="M76.7888 19.5124C76.6088 18.4549 75.7763 17.8249 74.8763 17.8249C73.9313 17.8249 73.2563 18.3199 73.3013 19.1074C73.3463 19.8724 74.2013 20.2324 75.2588 20.4124C79.0613 20.9749 80.6813 21.9424 80.6813 24.1699C80.6813 26.5549 78.4763 27.7699 75.1913 27.7699C71.4788 27.7699 69.2288 26.2624 69.0263 23.6974L72.9188 23.5399C73.1213 24.5974 73.8638 25.1824 75.0563 25.1824C75.8663 25.1824 76.7438 24.8674 76.6988 24.1249C76.6763 23.2474 75.7313 23.0224 74.6288 22.8199C70.9613 22.1449 69.3188 21.2449 69.3188 19.1074C69.3188 16.6999 71.3438 15.2824 74.9888 15.2824C78.1838 15.2824 80.2538 16.7899 80.6363 19.3774L76.7888 19.5124Z" fill="#0C111D"/>
<path d="M80.423 15.5749H84.023L86.813 23.4724L89.468 15.5749H93.068L88.433 28.5124C87.848 30.1549 86.7455 30.8749 84.9005 30.8749H82.5605V28.1299H84.113C84.878 28.1299 85.2605 27.9274 85.4855 27.3649L85.733 26.7574H84.698L80.423 15.5749Z" fill="#0C111D"/>
<path d="M106.405 11.5249V14.7424H101.68V27.4999H97.7649V14.7424H93.0399V11.5249H106.405Z" fill="#0C111D"/>
<path d="M106.497 19.3324C106.947 16.6999 108.927 15.3049 112.257 15.3049C116.082 15.3049 117.972 17.0599 117.972 20.5474V23.9449C117.972 24.8224 118.332 24.9574 118.737 24.9574H119.142V27.4999L118.602 27.5449C117.972 27.5674 115.227 27.9949 114.822 25.6999C114.192 26.9824 112.842 27.7699 110.57 27.7699C108.14 27.7699 106.295 26.4649 106.295 24.3499C106.295 22.2124 107.892 21.3124 110.84 20.7274L114.035 20.0749C114.035 18.4324 113.472 17.6674 112.235 17.6674C111.2 17.6674 110.57 18.2749 110.367 19.4899L106.497 19.3324ZM110.277 24.1924C110.277 24.8899 110.84 25.3849 111.897 25.3849C113.202 25.3849 114.102 24.3949 114.102 22.4374V22.3249L112.415 22.6399C111.132 22.8649 110.277 23.1349 110.277 24.1924Z" fill="#0C111D"/>
<path d="M128.633 15.5524H132.818L128.61 21.4474L132.93 27.4999H128.745L126.405 23.8549L124.043 27.4999H119.858L124.178 21.4474L119.97 15.5524H124.133L126.405 19.0174L128.633 15.5524Z" fill="#0C111D"/>
</svg>
