<svg xmlns="http://www.w3.org/2000/svg" width="20" height="20" opacity="0.5" viewBox="0 0 20 20" fill="none">
  <path d="M13.3333 3.54163C13.3333 4.57496 12.4917 5.41663 11.4583 5.41663H8.54166C8.02499 5.41663 7.55832 5.20829 7.21666 4.86663C6.87499 4.52496 6.66666 4.05829 6.66666 3.54163C6.66666 2.50829 7.50832 1.66663 8.54166 1.66663H11.4583C11.975 1.66663 12.4417 1.87496 12.7833 2.21663C13.125 2.55829 13.3333 3.02496 13.3333 3.54163Z" fill="white" style="fill:white;fill-opacity:1;"></path>
  <path d="M15.6917 4.19164C15.5 4.0333 15.2833 3.9083 15.05 3.81664C14.8083 3.72497 14.5667 3.91664 14.5167 4.16664C14.2333 5.59164 12.975 6.66664 11.4583 6.66664H8.54168C7.70834 6.66664 6.92501 6.34164 6.33334 5.74997C5.90001 5.31664 5.60001 4.76664 5.48334 4.17497C5.43334 3.92497 5.18334 3.72497 4.94168 3.82497C3.97501 4.21664 3.33334 5.09997 3.33334 6.87497V15C3.33334 17.5 4.82501 18.3333 6.66668 18.3333H13.3333C15.175 18.3333 16.6667 17.5 16.6667 15V6.87497C16.6667 5.51664 16.2917 4.6833 15.6917 4.19164ZM6.66668 10.2083H10C10.3417 10.2083 10.625 10.4916 10.625 10.8333C10.625 11.175 10.3417 11.4583 10 11.4583H6.66668C6.32501 11.4583 6.04168 11.175 6.04168 10.8333C6.04168 10.4916 6.32501 10.2083 6.66668 10.2083ZM13.3333 14.7916H6.66668C6.32501 14.7916 6.04168 14.5083 6.04168 14.1666C6.04168 13.825 6.32501 13.5416 6.66668 13.5416H13.3333C13.675 13.5416 13.9583 13.825 13.9583 14.1666C13.9583 14.5083 13.675 14.7916 13.3333 14.7916Z" fill="white" style="fill:white;fill-opacity:1;"></path>
</svg>